<mxfile host="app.diagrams.net" modified="2024-04-02T15:20:05.583Z" agent="Mozilla/5.0 (Windows NT 10.0; Win64; x64) AppleWebKit/537.36 (KHTML, like Gecko) Chrome/123.0.0.0 Safari/537.36" etag="dFELnKwQcpuvktK1YBwg" version="24.2.1" type="device">
  <diagram id="C5RBs43oDa-KdzZeNtuy" name="Page-1">
    <mxGraphModel dx="1674" dy="780" grid="1" gridSize="10" guides="1" tooltips="1" connect="1" arrows="1" fold="1" page="1" pageScale="1" pageWidth="827" pageHeight="1169" math="0" shadow="0">
      <root>
        <mxCell id="WIyWlLk6GJQsqaUBKTNV-0" />
        <mxCell id="WIyWlLk6GJQsqaUBKTNV-1" parent="WIyWlLk6GJQsqaUBKTNV-0" />
        <mxCell id="L0U67579NY8aqHPSI_gw-0" value="" style="edgeStyle=orthogonalEdgeStyle;rounded=0;orthogonalLoop=1;jettySize=auto;html=1;entryX=0.5;entryY=0;entryDx=0;entryDy=0;" parent="WIyWlLk6GJQsqaUBKTNV-1" source="L0U67579NY8aqHPSI_gw-3" target="L0U67579NY8aqHPSI_gw-5" edge="1">
          <mxGeometry relative="1" as="geometry" />
        </mxCell>
        <mxCell id="WIyWlLk6GJQsqaUBKTNV-3" value="Pick a random word from list of words" style="rounded=1;whiteSpace=wrap;html=1;fontSize=12;glass=0;strokeWidth=1;shadow=0;" parent="WIyWlLk6GJQsqaUBKTNV-1" vertex="1">
          <mxGeometry x="310" y="223" width="120" height="40" as="geometry" />
        </mxCell>
        <mxCell id="uk43Q_7D5YOWRv6qehfA-10" style="edgeStyle=orthogonalEdgeStyle;rounded=0;orthogonalLoop=1;jettySize=auto;html=1;entryX=0.5;entryY=0;entryDx=0;entryDy=0;" edge="1" parent="WIyWlLk6GJQsqaUBKTNV-1" source="WIyWlLk6GJQsqaUBKTNV-6" target="uk43Q_7D5YOWRv6qehfA-2">
          <mxGeometry relative="1" as="geometry" />
        </mxCell>
        <mxCell id="uk43Q_7D5YOWRv6qehfA-11" style="edgeStyle=orthogonalEdgeStyle;rounded=0;orthogonalLoop=1;jettySize=auto;html=1;entryX=0.5;entryY=0;entryDx=0;entryDy=0;" edge="1" parent="WIyWlLk6GJQsqaUBKTNV-1" source="WIyWlLk6GJQsqaUBKTNV-6" target="uk43Q_7D5YOWRv6qehfA-3">
          <mxGeometry relative="1" as="geometry" />
        </mxCell>
        <mxCell id="WIyWlLk6GJQsqaUBKTNV-6" value="Is the letter in the word" style="rhombus;whiteSpace=wrap;html=1;shadow=0;fontFamily=Helvetica;fontSize=12;align=center;strokeWidth=1;spacing=6;spacingTop=-4;" parent="WIyWlLk6GJQsqaUBKTNV-1" vertex="1">
          <mxGeometry x="320" y="717" width="100" height="80" as="geometry" />
        </mxCell>
        <mxCell id="WIyWlLk6GJQsqaUBKTNV-11" value="Game Over" style="rounded=1;whiteSpace=wrap;html=1;fontSize=12;glass=0;strokeWidth=1;shadow=0;" parent="WIyWlLk6GJQsqaUBKTNV-1" vertex="1">
          <mxGeometry x="300" y="1090" width="140" height="60" as="geometry" />
        </mxCell>
        <mxCell id="L0U67579NY8aqHPSI_gw-4" value="" style="edgeStyle=orthogonalEdgeStyle;rounded=0;orthogonalLoop=1;jettySize=auto;html=1;" parent="WIyWlLk6GJQsqaUBKTNV-1" source="WIyWlLk6GJQsqaUBKTNV-3" target="L0U67579NY8aqHPSI_gw-3" edge="1">
          <mxGeometry relative="1" as="geometry">
            <mxPoint x="370" y="263" as="sourcePoint" />
            <mxPoint x="370" y="473" as="targetPoint" />
          </mxGeometry>
        </mxCell>
        <mxCell id="L0U67579NY8aqHPSI_gw-3" value="Create running list with an underscore for each letter in the word" style="rounded=1;whiteSpace=wrap;html=1;fontSize=12;glass=0;strokeWidth=1;shadow=0;" parent="WIyWlLk6GJQsqaUBKTNV-1" vertex="1">
          <mxGeometry x="310" y="313" width="120" height="60" as="geometry" />
        </mxCell>
        <mxCell id="L0U67579NY8aqHPSI_gw-6" style="edgeStyle=orthogonalEdgeStyle;rounded=0;orthogonalLoop=1;jettySize=auto;html=1;" parent="WIyWlLk6GJQsqaUBKTNV-1" source="bLjIqdYjYTMIly4nFSiV-0" target="WIyWlLk6GJQsqaUBKTNV-6" edge="1">
          <mxGeometry relative="1" as="geometry" />
        </mxCell>
        <mxCell id="L0U67579NY8aqHPSI_gw-5" value="Pick a letter from alphabet" style="rounded=1;whiteSpace=wrap;html=1;fontSize=12;glass=0;strokeWidth=1;shadow=0;" parent="WIyWlLk6GJQsqaUBKTNV-1" vertex="1">
          <mxGeometry x="310" y="413" width="120" height="50" as="geometry" />
        </mxCell>
        <mxCell id="bhHlpzPiSgBh2muyALw0-22" value="" style="edgeStyle=orthogonalEdgeStyle;rounded=0;orthogonalLoop=1;jettySize=auto;html=1;" parent="WIyWlLk6GJQsqaUBKTNV-1" source="L0U67579NY8aqHPSI_gw-23" target="bhHlpzPiSgBh2muyALw0-21" edge="1">
          <mxGeometry relative="1" as="geometry" />
        </mxCell>
        <mxCell id="L0U67579NY8aqHPSI_gw-23" value="Does Incorrect attempt AND total body parts count match?" style="rhombus;whiteSpace=wrap;html=1;" parent="WIyWlLk6GJQsqaUBKTNV-1" vertex="1">
          <mxGeometry x="470" y="930" width="160" height="110" as="geometry" />
        </mxCell>
        <mxCell id="bhHlpzPiSgBh2muyALw0-20" value="" style="edgeStyle=orthogonalEdgeStyle;rounded=0;orthogonalLoop=1;jettySize=auto;html=1;" parent="WIyWlLk6GJQsqaUBKTNV-1" source="bhHlpzPiSgBh2muyALw0-17" target="bhHlpzPiSgBh2muyALw0-19" edge="1">
          <mxGeometry relative="1" as="geometry" />
        </mxCell>
        <mxCell id="bhHlpzPiSgBh2muyALw0-17" value="Does correct attempt AND length of word match?" style="rhombus;whiteSpace=wrap;html=1;shadow=0;strokeWidth=1;spacing=6;spacingTop=-4;" parent="WIyWlLk6GJQsqaUBKTNV-1" vertex="1">
          <mxGeometry x="95" y="930" width="190" height="110" as="geometry" />
        </mxCell>
        <mxCell id="bhHlpzPiSgBh2muyALw0-40" style="edgeStyle=elbowEdgeStyle;rounded=0;orthogonalLoop=1;jettySize=auto;html=1;entryX=0;entryY=0.5;entryDx=0;entryDy=0;" parent="WIyWlLk6GJQsqaUBKTNV-1" source="bhHlpzPiSgBh2muyALw0-19" target="WIyWlLk6GJQsqaUBKTNV-11" edge="1">
          <mxGeometry relative="1" as="geometry" />
        </mxCell>
        <mxCell id="bhHlpzPiSgBh2muyALw0-19" value="Print Message, &quot;You Win!&quot;" style="whiteSpace=wrap;html=1;shadow=0;strokeWidth=1;spacing=6;spacingTop=-4;glass=0;rounded=1;" parent="WIyWlLk6GJQsqaUBKTNV-1" vertex="1">
          <mxGeometry x="130" y="1090" width="120" height="60" as="geometry" />
        </mxCell>
        <mxCell id="bhHlpzPiSgBh2muyALw0-39" style="edgeStyle=elbowEdgeStyle;rounded=0;orthogonalLoop=1;jettySize=auto;html=1;entryX=1;entryY=0.5;entryDx=0;entryDy=0;" parent="WIyWlLk6GJQsqaUBKTNV-1" source="bhHlpzPiSgBh2muyALw0-21" target="WIyWlLk6GJQsqaUBKTNV-11" edge="1">
          <mxGeometry relative="1" as="geometry" />
        </mxCell>
        <mxCell id="bhHlpzPiSgBh2muyALw0-21" value="Print Message, &quot;You lose!&quot;" style="whiteSpace=wrap;html=1;rounded=1;" parent="WIyWlLk6GJQsqaUBKTNV-1" vertex="1">
          <mxGeometry x="490" y="1090" width="120" height="60" as="geometry" />
        </mxCell>
        <mxCell id="bhHlpzPiSgBh2muyALw0-41" value="START" style="whiteSpace=wrap;html=1;rounded=1;glass=0;strokeWidth=1;shadow=0;" parent="WIyWlLk6GJQsqaUBKTNV-1" vertex="1">
          <mxGeometry x="310" y="110" width="120" height="60" as="geometry" />
        </mxCell>
        <mxCell id="bLjIqdYjYTMIly4nFSiV-1" value="" style="edgeStyle=orthogonalEdgeStyle;rounded=0;orthogonalLoop=1;jettySize=auto;html=1;" parent="WIyWlLk6GJQsqaUBKTNV-1" source="L0U67579NY8aqHPSI_gw-5" target="bLjIqdYjYTMIly4nFSiV-0" edge="1">
          <mxGeometry relative="1" as="geometry">
            <mxPoint x="370" y="463" as="sourcePoint" />
            <mxPoint x="370" y="628" as="targetPoint" />
          </mxGeometry>
        </mxCell>
        <mxCell id="bLjIqdYjYTMIly4nFSiV-3" style="edgeStyle=orthogonalEdgeStyle;rounded=0;orthogonalLoop=1;jettySize=auto;html=1;exitX=0;exitY=0.5;exitDx=0;exitDy=0;entryX=0;entryY=0.5;entryDx=0;entryDy=0;" parent="WIyWlLk6GJQsqaUBKTNV-1" source="bLjIqdYjYTMIly4nFSiV-0" target="L0U67579NY8aqHPSI_gw-5" edge="1">
          <mxGeometry relative="1" as="geometry" />
        </mxCell>
        <mxCell id="bLjIqdYjYTMIly4nFSiV-0" value="Was letter previously chosen?" style="rhombus;whiteSpace=wrap;html=1;" parent="WIyWlLk6GJQsqaUBKTNV-1" vertex="1">
          <mxGeometry x="330" y="503" width="80" height="80" as="geometry" />
        </mxCell>
        <mxCell id="bLjIqdYjYTMIly4nFSiV-5" value="" style="edgeStyle=elbowEdgeStyle;rounded=0;orthogonalLoop=1;jettySize=auto;html=1;entryX=0.5;entryY=0;entryDx=0;entryDy=0;" parent="WIyWlLk6GJQsqaUBKTNV-1" source="bhHlpzPiSgBh2muyALw0-41" target="WIyWlLk6GJQsqaUBKTNV-3" edge="1">
          <mxGeometry relative="1" as="geometry">
            <mxPoint x="370" y="-20" as="sourcePoint" />
            <mxPoint x="370" y="30" as="targetPoint" />
          </mxGeometry>
        </mxCell>
        <mxCell id="Od2Vf8qbtEy5K3cYkyZ1-0" value="Add letter to list of chosen letters" style="rounded=1;whiteSpace=wrap;html=1;" parent="WIyWlLk6GJQsqaUBKTNV-1" vertex="1">
          <mxGeometry x="310" y="610" width="120" height="60" as="geometry" />
        </mxCell>
        <mxCell id="uk43Q_7D5YOWRv6qehfA-4" style="edgeStyle=orthogonalEdgeStyle;rounded=0;orthogonalLoop=1;jettySize=auto;html=1;entryX=0;entryY=0.5;entryDx=0;entryDy=0;" edge="1" parent="WIyWlLk6GJQsqaUBKTNV-1" source="uk43Q_7D5YOWRv6qehfA-2" target="L0U67579NY8aqHPSI_gw-5">
          <mxGeometry relative="1" as="geometry">
            <Array as="points">
              <mxPoint x="90" y="845" />
              <mxPoint x="90" y="438" />
            </Array>
          </mxGeometry>
        </mxCell>
        <mxCell id="uk43Q_7D5YOWRv6qehfA-7" style="edgeStyle=orthogonalEdgeStyle;rounded=0;orthogonalLoop=1;jettySize=auto;html=1;entryX=0.5;entryY=0;entryDx=0;entryDy=0;" edge="1" parent="WIyWlLk6GJQsqaUBKTNV-1" source="uk43Q_7D5YOWRv6qehfA-2" target="bhHlpzPiSgBh2muyALw0-17">
          <mxGeometry relative="1" as="geometry" />
        </mxCell>
        <mxCell id="uk43Q_7D5YOWRv6qehfA-2" value="Increase correct attemtps by 1 AND replace underscore with letter" style="rounded=1;whiteSpace=wrap;html=1;" vertex="1" parent="WIyWlLk6GJQsqaUBKTNV-1">
          <mxGeometry x="130" y="810" width="120" height="70" as="geometry" />
        </mxCell>
        <mxCell id="uk43Q_7D5YOWRv6qehfA-5" style="edgeStyle=orthogonalEdgeStyle;rounded=0;orthogonalLoop=1;jettySize=auto;html=1;entryX=1;entryY=0.5;entryDx=0;entryDy=0;" edge="1" parent="WIyWlLk6GJQsqaUBKTNV-1" source="uk43Q_7D5YOWRv6qehfA-3" target="L0U67579NY8aqHPSI_gw-5">
          <mxGeometry relative="1" as="geometry">
            <Array as="points">
              <mxPoint x="650" y="860" />
              <mxPoint x="650" y="438" />
            </Array>
          </mxGeometry>
        </mxCell>
        <mxCell id="uk43Q_7D5YOWRv6qehfA-8" style="edgeStyle=orthogonalEdgeStyle;rounded=0;orthogonalLoop=1;jettySize=auto;html=1;entryX=0.5;entryY=0;entryDx=0;entryDy=0;" edge="1" parent="WIyWlLk6GJQsqaUBKTNV-1" source="uk43Q_7D5YOWRv6qehfA-3" target="L0U67579NY8aqHPSI_gw-23">
          <mxGeometry relative="1" as="geometry" />
        </mxCell>
        <mxCell id="uk43Q_7D5YOWRv6qehfA-3" value="Increase incorrect attempts by 1 AND display body part corresponding to&amp;nbsp;" style="rounded=1;whiteSpace=wrap;html=1;" vertex="1" parent="WIyWlLk6GJQsqaUBKTNV-1">
          <mxGeometry x="490" y="830" width="120" height="60" as="geometry" />
        </mxCell>
      </root>
    </mxGraphModel>
  </diagram>
</mxfile>
